<mxfile host="app.diagrams.net" modified="2023-06-07T03:06:22.658Z" agent="Mozilla/5.0 (Windows NT 10.0; Win64; x64) AppleWebKit/537.36 (KHTML, like Gecko) Chrome/114.0.0.0 Safari/537.36" etag="dcH8I2byPuT4bt5V4QZ1" version="21.3.7" type="github">
  <diagram id="C5RBs43oDa-KdzZeNtuy" name="Page-1">
    <mxGraphModel dx="2049" dy="598" grid="1" gridSize="10" guides="1" tooltips="1" connect="1" arrows="1" fold="1" page="1" pageScale="1" pageWidth="827" pageHeight="1169" math="0" shadow="0">
      <root>
        <mxCell id="WIyWlLk6GJQsqaUBKTNV-0" />
        <mxCell id="WIyWlLk6GJQsqaUBKTNV-1" parent="WIyWlLk6GJQsqaUBKTNV-0" />
        <mxCell id="mdNOLCDKMhmKH1dVcRL2-8" style="edgeStyle=orthogonalEdgeStyle;rounded=0;orthogonalLoop=1;jettySize=auto;html=1;" parent="WIyWlLk6GJQsqaUBKTNV-1" source="WIyWlLk6GJQsqaUBKTNV-3" target="hEkjTt2-bJz7DTn4r3B0-1" edge="1">
          <mxGeometry relative="1" as="geometry" />
        </mxCell>
        <mxCell id="WIyWlLk6GJQsqaUBKTNV-3" value="Start" style="rounded=1;whiteSpace=wrap;html=1;fontSize=12;glass=0;strokeWidth=1;shadow=0;fillColor=#99FF99;fontStyle=1" parent="WIyWlLk6GJQsqaUBKTNV-1" vertex="1">
          <mxGeometry x="105" y="170" width="120" height="40" as="geometry" />
        </mxCell>
        <mxCell id="mdNOLCDKMhmKH1dVcRL2-4" style="edgeStyle=orthogonalEdgeStyle;rounded=0;orthogonalLoop=1;jettySize=auto;html=1;entryX=0;entryY=0.5;entryDx=0;entryDy=0;entryPerimeter=0;" parent="WIyWlLk6GJQsqaUBKTNV-1" source="WIyWlLk6GJQsqaUBKTNV-10" target="hEkjTt2-bJz7DTn4r3B0-57" edge="1">
          <mxGeometry relative="1" as="geometry" />
        </mxCell>
        <mxCell id="WIyWlLk6GJQsqaUBKTNV-10" value="Training Modules/Videos &amp;amp; learning Material" style="rounded=1;whiteSpace=wrap;html=1;shadow=0;strokeWidth=1;spacing=6;spacingTop=-4;fontStyle=1;fontSize=14;" parent="WIyWlLk6GJQsqaUBKTNV-1" vertex="1">
          <mxGeometry x="330" y="290" width="230" height="80" as="geometry" />
        </mxCell>
        <mxCell id="Cq3xylXxz4JPVy2OtA_v-11" style="edgeStyle=orthogonalEdgeStyle;rounded=0;orthogonalLoop=1;jettySize=auto;html=1;entryX=1;entryY=0.5;entryDx=0;entryDy=0;" parent="WIyWlLk6GJQsqaUBKTNV-1" source="hEkjTt2-bJz7DTn4r3B0-1" target="Cq3xylXxz4JPVy2OtA_v-7" edge="1">
          <mxGeometry relative="1" as="geometry">
            <Array as="points">
              <mxPoint x="80" y="330" />
              <mxPoint x="80" y="448" />
            </Array>
          </mxGeometry>
        </mxCell>
        <mxCell id="mdNOLCDKMhmKH1dVcRL2-3" style="edgeStyle=orthogonalEdgeStyle;rounded=0;orthogonalLoop=1;jettySize=auto;html=1;entryX=0;entryY=0.5;entryDx=0;entryDy=0;" parent="WIyWlLk6GJQsqaUBKTNV-1" source="hEkjTt2-bJz7DTn4r3B0-1" target="WIyWlLk6GJQsqaUBKTNV-10" edge="1">
          <mxGeometry relative="1" as="geometry" />
        </mxCell>
        <mxCell id="hEkjTt2-bJz7DTn4r3B0-1" value="&lt;b style=&quot;font-size: 14px;&quot;&gt;Teacher Training and&lt;br style=&quot;font-size: 14px;&quot;&gt;Learning Resources&amp;nbsp;&lt;/b&gt;" style="rounded=0;whiteSpace=wrap;html=1;fillColor=#CCCCFF;fontSize=14;" parent="WIyWlLk6GJQsqaUBKTNV-1" vertex="1">
          <mxGeometry x="90" y="300" width="150" height="60" as="geometry" />
        </mxCell>
        <mxCell id="hEkjTt2-bJz7DTn4r3B0-57" value="DB" style="shape=cylinder3;whiteSpace=wrap;html=1;boundedLbl=1;backgroundOutline=1;size=15;fillColor=#66B2FF;fontStyle=1" parent="WIyWlLk6GJQsqaUBKTNV-1" vertex="1">
          <mxGeometry x="660" y="290" width="65" height="80" as="geometry" />
        </mxCell>
        <mxCell id="mdNOLCDKMhmKH1dVcRL2-2" style="edgeStyle=orthogonalEdgeStyle;rounded=0;orthogonalLoop=1;jettySize=auto;html=1;entryX=0.458;entryY=1.003;entryDx=0;entryDy=0;entryPerimeter=0;" parent="WIyWlLk6GJQsqaUBKTNV-1" source="hEkjTt2-bJz7DTn4r3B0-60" target="WIyWlLk6GJQsqaUBKTNV-10" edge="1">
          <mxGeometry relative="1" as="geometry" />
        </mxCell>
        <mxCell id="Cq3xylXxz4JPVy2OtA_v-0" value="" style="shape=actor;whiteSpace=wrap;html=1;fillColor=#009900;" parent="WIyWlLk6GJQsqaUBKTNV-1" vertex="1">
          <mxGeometry x="-220" y="370" width="40" height="45" as="geometry" />
        </mxCell>
        <mxCell id="Cq3xylXxz4JPVy2OtA_v-5" value="PMIU" style="rounded=0;whiteSpace=wrap;html=1;fontStyle=1;fontSize=16;" parent="WIyWlLk6GJQsqaUBKTNV-1" vertex="1">
          <mxGeometry x="-260" y="415" width="120" height="65" as="geometry" />
        </mxCell>
        <mxCell id="Cq3xylXxz4JPVy2OtA_v-23" value="" style="edgeStyle=orthogonalEdgeStyle;rounded=0;orthogonalLoop=1;jettySize=auto;html=1;" parent="WIyWlLk6GJQsqaUBKTNV-1" source="Cq3xylXxz4JPVy2OtA_v-7" target="Cq3xylXxz4JPVy2OtA_v-5" edge="1">
          <mxGeometry relative="1" as="geometry" />
        </mxCell>
        <mxCell id="Cq3xylXxz4JPVy2OtA_v-7" value="?&lt;br style=&quot;font-size: 14px;&quot;&gt;&lt;font style=&quot;font-size: 12px;&quot;&gt;(PITE/STEDA/&lt;br style=&quot;&quot;&gt;DCAR&lt;/font&gt;)" style="rounded=0;whiteSpace=wrap;html=1;fontStyle=1;fontSize=14;fontColor=#FF3333;" parent="WIyWlLk6GJQsqaUBKTNV-1" vertex="1">
          <mxGeometry x="-90" y="415" width="120" height="65" as="geometry" />
        </mxCell>
        <mxCell id="Cq3xylXxz4JPVy2OtA_v-8" value="" style="shape=actor;whiteSpace=wrap;html=1;fillColor=#f8cecc;strokeColor=#b85450;" parent="WIyWlLk6GJQsqaUBKTNV-1" vertex="1">
          <mxGeometry x="-50" y="370" width="40" height="45" as="geometry" />
        </mxCell>
        <mxCell id="Cq3xylXxz4JPVy2OtA_v-25" value="PMIU SELECT" style="rounded=0;whiteSpace=wrap;html=1;fontSize=13;fontStyle=1;strokeColor=none;fillColor=none;" parent="WIyWlLk6GJQsqaUBKTNV-1" vertex="1">
          <mxGeometry x="-280" y="300" width="160" height="60" as="geometry" />
        </mxCell>
        <mxCell id="mdNOLCDKMhmKH1dVcRL2-0" style="edgeStyle=orthogonalEdgeStyle;rounded=0;orthogonalLoop=1;jettySize=auto;html=1;exitX=1;exitY=0.5;exitDx=0;exitDy=0;entryX=0.917;entryY=0.5;entryDx=0;entryDy=0;entryPerimeter=0;" parent="WIyWlLk6GJQsqaUBKTNV-1" source="WIyWlLk6GJQsqaUBKTNV-3" target="WIyWlLk6GJQsqaUBKTNV-3" edge="1">
          <mxGeometry relative="1" as="geometry" />
        </mxCell>
        <mxCell id="mdNOLCDKMhmKH1dVcRL2-10" value="" style="edgeStyle=orthogonalEdgeStyle;rounded=0;orthogonalLoop=1;jettySize=auto;html=1;" parent="WIyWlLk6GJQsqaUBKTNV-1" source="mdNOLCDKMhmKH1dVcRL2-5" target="mdNOLCDKMhmKH1dVcRL2-9" edge="1">
          <mxGeometry relative="1" as="geometry" />
        </mxCell>
        <mxCell id="mdNOLCDKMhmKH1dVcRL2-41" style="edgeStyle=orthogonalEdgeStyle;rounded=0;orthogonalLoop=1;jettySize=auto;html=1;entryX=1;entryY=0.5;entryDx=0;entryDy=0;" parent="WIyWlLk6GJQsqaUBKTNV-1" source="mdNOLCDKMhmKH1dVcRL2-5" target="hEkjTt2-bJz7DTn4r3B0-26" edge="1">
          <mxGeometry relative="1" as="geometry">
            <Array as="points">
              <mxPoint x="780" y="380" />
              <mxPoint x="780" y="602" />
            </Array>
          </mxGeometry>
        </mxCell>
        <mxCell id="mdNOLCDKMhmKH1dVcRL2-5" value="Repository" style="whiteSpace=wrap;html=1;fillColor=#b1ddf0;fontStyle=1;strokeColor=#10739e;fontSize=14;" parent="WIyWlLk6GJQsqaUBKTNV-1" vertex="1">
          <mxGeometry x="635" y="360" width="120" height="40" as="geometry" />
        </mxCell>
        <mxCell id="mdNOLCDKMhmKH1dVcRL2-12" value="" style="edgeStyle=orthogonalEdgeStyle;rounded=0;orthogonalLoop=1;jettySize=auto;html=1;" parent="WIyWlLk6GJQsqaUBKTNV-1" source="mdNOLCDKMhmKH1dVcRL2-9" target="mdNOLCDKMhmKH1dVcRL2-11" edge="1">
          <mxGeometry relative="1" as="geometry" />
        </mxCell>
        <mxCell id="mdNOLCDKMhmKH1dVcRL2-9" value="Reviewed/Verified &lt;br&gt;by" style="shape=parallelogram;perimeter=parallelogramPerimeter;whiteSpace=wrap;html=1;fixedSize=1;fontSize=14;fillColor=#e3c800;strokeColor=#B09500;fontColor=#000000;fontStyle=1;" parent="WIyWlLk6GJQsqaUBKTNV-1" vertex="1">
          <mxGeometry x="620" y="470" width="150" height="60" as="geometry" />
        </mxCell>
        <mxCell id="mdNOLCDKMhmKH1dVcRL2-20" style="edgeStyle=orthogonalEdgeStyle;rounded=0;orthogonalLoop=1;jettySize=auto;html=1;" parent="WIyWlLk6GJQsqaUBKTNV-1" source="mdNOLCDKMhmKH1dVcRL2-11" edge="1">
          <mxGeometry relative="1" as="geometry">
            <mxPoint x="635" y="390" as="targetPoint" />
            <Array as="points">
              <mxPoint x="540" y="390" />
              <mxPoint x="635" y="390" />
            </Array>
          </mxGeometry>
        </mxCell>
        <mxCell id="mdNOLCDKMhmKH1dVcRL2-11" value="?" style="ellipse;shape=cloud;whiteSpace=wrap;html=1;fontSize=19;fillColor=#f5f5f5;strokeColor=#666666;fontColor=#333333;fontStyle=1;" parent="WIyWlLk6GJQsqaUBKTNV-1" vertex="1">
          <mxGeometry x="500" y="450" width="80" height="80" as="geometry" />
        </mxCell>
        <mxCell id="mdNOLCDKMhmKH1dVcRL2-14" value="" style="group;fontSize=18;fontStyle=1" parent="WIyWlLk6GJQsqaUBKTNV-1" vertex="1" connectable="0">
          <mxGeometry x="260" y="410" width="140" height="42.5" as="geometry" />
        </mxCell>
        <mxCell id="hEkjTt2-bJz7DTn4r3B0-60" value="&lt;font style=&quot;font-size: 17px;&quot; color=&quot;#ff3333&quot;&gt;?&lt;/font&gt;" style="rounded=1;whiteSpace=wrap;html=1;fontStyle=1;fontSize=14;fillColor=#33FF33;" parent="mdNOLCDKMhmKH1dVcRL2-14" vertex="1">
          <mxGeometry x="20" width="120" height="40" as="geometry" />
        </mxCell>
        <mxCell id="mdNOLCDKMhmKH1dVcRL2-1" value="" style="shape=actor;whiteSpace=wrap;html=1;fillColor=#008a00;strokeColor=#005700;fontColor=#ffffff;" parent="mdNOLCDKMhmKH1dVcRL2-14" vertex="1">
          <mxGeometry y="5" width="30" height="37.5" as="geometry" />
        </mxCell>
        <mxCell id="mdNOLCDKMhmKH1dVcRL2-34" value="" style="edgeStyle=orthogonalEdgeStyle;rounded=0;orthogonalLoop=1;jettySize=auto;html=1;" parent="WIyWlLk6GJQsqaUBKTNV-1" source="mdNOLCDKMhmKH1dVcRL2-16" target="mdNOLCDKMhmKH1dVcRL2-31" edge="1">
          <mxGeometry relative="1" as="geometry" />
        </mxCell>
        <mxCell id="mdNOLCDKMhmKH1dVcRL2-16" value="Master Trainer Selection" style="shape=hexagon;perimeter=hexagonPerimeter2;whiteSpace=wrap;html=1;fixedSize=1;fontSize=14;fillColor=#FFFF99;rounded=0;" parent="WIyWlLk6GJQsqaUBKTNV-1" vertex="1">
          <mxGeometry y="559" width="120" height="80" as="geometry" />
        </mxCell>
        <mxCell id="mdNOLCDKMhmKH1dVcRL2-21" value="After review approved update on same&amp;nbsp;" style="rounded=0;whiteSpace=wrap;html=1;fillColor=#FFCC99;" parent="WIyWlLk6GJQsqaUBKTNV-1" vertex="1">
          <mxGeometry x="540" y="415" width="120" height="45" as="geometry" />
        </mxCell>
        <mxCell id="mdNOLCDKMhmKH1dVcRL2-33" value="" style="edgeStyle=orthogonalEdgeStyle;rounded=0;orthogonalLoop=1;jettySize=auto;html=1;" parent="WIyWlLk6GJQsqaUBKTNV-1" source="mdNOLCDKMhmKH1dVcRL2-31" target="mdNOLCDKMhmKH1dVcRL2-32" edge="1">
          <mxGeometry relative="1" as="geometry" />
        </mxCell>
        <mxCell id="mdNOLCDKMhmKH1dVcRL2-31" value="Teacher can apply" style="rounded=1;whiteSpace=wrap;html=1;fontStyle=0;fontSize=14;" parent="WIyWlLk6GJQsqaUBKTNV-1" vertex="1">
          <mxGeometry x="155" y="569" width="120" height="60" as="geometry" />
        </mxCell>
        <mxCell id="mdNOLCDKMhmKH1dVcRL2-36" style="edgeStyle=orthogonalEdgeStyle;rounded=0;orthogonalLoop=1;jettySize=auto;html=1;entryX=0.5;entryY=1;entryDx=0;entryDy=0;" parent="WIyWlLk6GJQsqaUBKTNV-1" source="mdNOLCDKMhmKH1dVcRL2-32" target="Cq3xylXxz4JPVy2OtA_v-5" edge="1">
          <mxGeometry relative="1" as="geometry">
            <Array as="points">
              <mxPoint x="350" y="510" />
              <mxPoint x="-200" y="510" />
            </Array>
          </mxGeometry>
        </mxCell>
        <mxCell id="mdNOLCDKMhmKH1dVcRL2-38" value="" style="edgeStyle=orthogonalEdgeStyle;rounded=0;orthogonalLoop=1;jettySize=auto;html=1;" parent="WIyWlLk6GJQsqaUBKTNV-1" source="mdNOLCDKMhmKH1dVcRL2-32" target="mdNOLCDKMhmKH1dVcRL2-37" edge="1">
          <mxGeometry relative="1" as="geometry" />
        </mxCell>
        <mxCell id="mdNOLCDKMhmKH1dVcRL2-32" value="Short Listing" style="rounded=1;whiteSpace=wrap;html=1;fontStyle=1;fontSize=14;" parent="WIyWlLk6GJQsqaUBKTNV-1" vertex="1">
          <mxGeometry x="295" y="569" width="120" height="60" as="geometry" />
        </mxCell>
        <mxCell id="mdNOLCDKMhmKH1dVcRL2-40" value="" style="edgeStyle=orthogonalEdgeStyle;rounded=0;orthogonalLoop=1;jettySize=auto;html=1;" parent="WIyWlLk6GJQsqaUBKTNV-1" source="mdNOLCDKMhmKH1dVcRL2-37" target="mdNOLCDKMhmKH1dVcRL2-25" edge="1">
          <mxGeometry relative="1" as="geometry" />
        </mxCell>
        <mxCell id="mdNOLCDKMhmKH1dVcRL2-37" value="Interviewed by ?" style="shape=parallelogram;perimeter=parallelogramPerimeter;whiteSpace=wrap;html=1;fixedSize=1;fontColor=#FF3333;fontStyle=1" parent="WIyWlLk6GJQsqaUBKTNV-1" vertex="1">
          <mxGeometry x="446" y="571.5" width="129" height="55" as="geometry" />
        </mxCell>
        <mxCell id="mdNOLCDKMhmKH1dVcRL2-39" value="" style="group" parent="WIyWlLk6GJQsqaUBKTNV-1" vertex="1" connectable="0">
          <mxGeometry x="595" y="564" width="150" height="86" as="geometry" />
        </mxCell>
        <mxCell id="hEkjTt2-bJz7DTn4r3B0-26" value="MT/GT/SC/CH" style="rounded=1;whiteSpace=wrap;html=1;fontStyle=1;align=right;" parent="mdNOLCDKMhmKH1dVcRL2-39" vertex="1">
          <mxGeometry y="6.142857142857143" width="150" height="79.85714285714286" as="geometry" />
        </mxCell>
        <mxCell id="mdNOLCDKMhmKH1dVcRL2-25" value="" style="shape=image;html=1;verticalAlign=top;verticalLabelPosition=bottom;labelBackgroundColor=#ffffff;imageAspect=0;aspect=fixed;image=https://cdn0.iconfinder.com/data/icons/phosphor-fill-vol-1/256/chalkboard-teacher-fill-128.png" parent="mdNOLCDKMhmKH1dVcRL2-39" vertex="1">
          <mxGeometry width="70" height="70" as="geometry" />
        </mxCell>
        <mxCell id="mdNOLCDKMhmKH1dVcRL2-43" value="Master Trainers access repository and complete trainings" style="rounded=0;whiteSpace=wrap;html=1;fillColor=#FFCC99;rotation=-90;" parent="WIyWlLk6GJQsqaUBKTNV-1" vertex="1">
          <mxGeometry x="700" y="470" width="200" height="38.75" as="geometry" />
        </mxCell>
        <mxCell id="mdNOLCDKMhmKH1dVcRL2-58" value="" style="edgeStyle=orthogonalEdgeStyle;rounded=0;orthogonalLoop=1;jettySize=auto;html=1;" parent="WIyWlLk6GJQsqaUBKTNV-1" source="mdNOLCDKMhmKH1dVcRL2-45" target="mdNOLCDKMhmKH1dVcRL2-57" edge="1">
          <mxGeometry relative="1" as="geometry" />
        </mxCell>
        <mxCell id="mdNOLCDKMhmKH1dVcRL2-70" style="edgeStyle=orthogonalEdgeStyle;rounded=0;orthogonalLoop=1;jettySize=auto;html=1;entryX=1;entryY=0.75;entryDx=0;entryDy=0;" parent="WIyWlLk6GJQsqaUBKTNV-1" source="mdNOLCDKMhmKH1dVcRL2-45" target="mdNOLCDKMhmKH1dVcRL2-62" edge="1">
          <mxGeometry relative="1" as="geometry" />
        </mxCell>
        <mxCell id="mdNOLCDKMhmKH1dVcRL2-45" value="&lt;br&gt;&lt;br&gt;HT/Teachers" style="ellipse;whiteSpace=wrap;html=1;aspect=fixed;fillColor=#1ba1e2;strokeColor=#006EAF;fontColor=#ffffff;fontStyle=1;fontSize=14;" parent="WIyWlLk6GJQsqaUBKTNV-1" vertex="1">
          <mxGeometry x="360" y="650" width="100" height="100" as="geometry" />
        </mxCell>
        <mxCell id="mdNOLCDKMhmKH1dVcRL2-52" value="" style="edgeStyle=orthogonalEdgeStyle;rounded=0;orthogonalLoop=1;jettySize=auto;html=1;" parent="WIyWlLk6GJQsqaUBKTNV-1" source="mdNOLCDKMhmKH1dVcRL2-50" target="mdNOLCDKMhmKH1dVcRL2-45" edge="1">
          <mxGeometry relative="1" as="geometry">
            <Array as="points">
              <mxPoint x="500" y="710" />
              <mxPoint x="500" y="700" />
            </Array>
          </mxGeometry>
        </mxCell>
        <mxCell id="mdNOLCDKMhmKH1dVcRL2-50" value="Further&lt;br&gt;Trained to" style="rounded=0;whiteSpace=wrap;html=1;fillColor=#ffcccc;strokeColor=#36393d;fontStyle=3" parent="WIyWlLk6GJQsqaUBKTNV-1" vertex="1">
          <mxGeometry x="550" y="690" width="70" height="40" as="geometry" />
        </mxCell>
        <mxCell id="mdNOLCDKMhmKH1dVcRL2-51" value="" style="edgeStyle=orthogonalEdgeStyle;rounded=0;orthogonalLoop=1;jettySize=auto;html=1;" parent="WIyWlLk6GJQsqaUBKTNV-1" source="hEkjTt2-bJz7DTn4r3B0-26" target="mdNOLCDKMhmKH1dVcRL2-50" edge="1">
          <mxGeometry relative="1" as="geometry">
            <Array as="points">
              <mxPoint x="670" y="657" />
              <mxPoint x="585" y="657" />
            </Array>
          </mxGeometry>
        </mxCell>
        <mxCell id="hE8lq5-WtpNPj1kXU_LE-0" style="edgeStyle=orthogonalEdgeStyle;rounded=0;orthogonalLoop=1;jettySize=auto;html=1;" edge="1" parent="WIyWlLk6GJQsqaUBKTNV-1" source="mdNOLCDKMhmKH1dVcRL2-57" target="mdNOLCDKMhmKH1dVcRL2-60">
          <mxGeometry relative="1" as="geometry" />
        </mxCell>
        <mxCell id="mdNOLCDKMhmKH1dVcRL2-57" value="Training Completion status" style="whiteSpace=wrap;html=1;fillColor=#bac8d3;strokeColor=#23445d;fontStyle=1;" parent="WIyWlLk6GJQsqaUBKTNV-1" vertex="1">
          <mxGeometry x="171" y="670" width="120" height="60" as="geometry" />
        </mxCell>
        <mxCell id="mdNOLCDKMhmKH1dVcRL2-61" style="edgeStyle=orthogonalEdgeStyle;rounded=0;orthogonalLoop=1;jettySize=auto;html=1;" parent="WIyWlLk6GJQsqaUBKTNV-1" source="mdNOLCDKMhmKH1dVcRL2-60" target="Cq3xylXxz4JPVy2OtA_v-7" edge="1">
          <mxGeometry relative="1" as="geometry">
            <Array as="points">
              <mxPoint x="-50" y="570" />
              <mxPoint x="-50" y="570" />
            </Array>
          </mxGeometry>
        </mxCell>
        <mxCell id="mdNOLCDKMhmKH1dVcRL2-67" value="" style="edgeStyle=orthogonalEdgeStyle;rounded=0;orthogonalLoop=1;jettySize=auto;html=1;" parent="WIyWlLk6GJQsqaUBKTNV-1" source="mdNOLCDKMhmKH1dVcRL2-60" target="mdNOLCDKMhmKH1dVcRL2-66" edge="1">
          <mxGeometry relative="1" as="geometry" />
        </mxCell>
        <mxCell id="mdNOLCDKMhmKH1dVcRL2-60" value="Review &amp;amp; Verified by" style="rhombus;whiteSpace=wrap;html=1;fontStyle=1;fillColor=#ffcd28;gradientColor=#ffa500;strokeColor=#d79b00;" parent="WIyWlLk6GJQsqaUBKTNV-1" vertex="1">
          <mxGeometry x="-100" y="648.75" width="90" height="91.25" as="geometry" />
        </mxCell>
        <mxCell id="mdNOLCDKMhmKH1dVcRL2-62" value="Certificate" style="swimlane;whiteSpace=wrap;html=1;fillColor=#008a00;fontColor=#ffffff;strokeColor=#005700;" parent="WIyWlLk6GJQsqaUBKTNV-1" vertex="1">
          <mxGeometry x="220" y="810" width="155" height="158" as="geometry" />
        </mxCell>
        <mxCell id="mdNOLCDKMhmKH1dVcRL2-64" value="" style="shape=image;html=1;verticalAlign=top;verticalLabelPosition=bottom;labelBackgroundColor=#ffffff;imageAspect=0;aspect=fixed;image=https://cdn0.iconfinder.com/data/icons/analytic-investment-and-balanced-scorecard/512/9Man_user_Student_Teacher_Avatar-128.png;imageBackground=default;imageBorder=#006600;" parent="mdNOLCDKMhmKH1dVcRL2-62" vertex="1">
          <mxGeometry x="45" y="46.5" width="65" height="65" as="geometry" />
        </mxCell>
        <mxCell id="mdNOLCDKMhmKH1dVcRL2-68" style="edgeStyle=orthogonalEdgeStyle;rounded=0;orthogonalLoop=1;jettySize=auto;html=1;" parent="WIyWlLk6GJQsqaUBKTNV-1" source="mdNOLCDKMhmKH1dVcRL2-66" edge="1">
          <mxGeometry relative="1" as="geometry">
            <mxPoint x="220" y="866" as="targetPoint" />
          </mxGeometry>
        </mxCell>
        <mxCell id="mdNOLCDKMhmKH1dVcRL2-66" value="Certificate Issued by ?" style="whiteSpace=wrap;html=1;fontStyle=1;fontColor=#ff0000;" parent="WIyWlLk6GJQsqaUBKTNV-1" vertex="1">
          <mxGeometry x="-115" y="835.625" width="120" height="60" as="geometry" />
        </mxCell>
        <mxCell id="mdNOLCDKMhmKH1dVcRL2-71" value="" style="shape=image;html=1;verticalAlign=top;verticalLabelPosition=bottom;labelBackgroundColor=default;imageAspect=0;aspect=fixed;image=https://cdn4.iconfinder.com/data/icons/education-and-school-glyph-24-px/24/Instructor_professor_teacher_teaching_tutor_-128.png;fontColor=#00994D;" parent="WIyWlLk6GJQsqaUBKTNV-1" vertex="1">
          <mxGeometry x="388" y="660" width="46" height="46" as="geometry" />
        </mxCell>
      </root>
    </mxGraphModel>
  </diagram>
</mxfile>
